IKResults
version=1
nRows=24
nColumns=24
inDegrees=yes

Units are S.I. units (second, meters, Newtons, ...)
If the header above contains a line with 'inDegrees', this indicates whether rotational values are in degrees (yes) or radians (no).

endheader
time	pelvis_tilt	pelvis_list	pelvis_rotation	pelvis_tx	pelvis_ty	pelvis_tz	hip_flexion_r	hip_adduction_r	hip_rotation_r	knee_angle_r	ankle_angle_r	subtalar_angle_r	mtp_angle_r	hip_flexion_l	hip_adduction_l	hip_rotation_l	knee_angle_l	ankle_angle_l	subtalar_angle_l	mtp_angle_l	lumbar_extension	lumbar_bending	lumbar_rotation
5.540000	12.078373	1.025060	-179.117805	0.285993	0.703825	-1.205242	52.911715	-27.276371	-22.811433	-72.644658	23.450331	5.244893	0.000000	54.379691	-28.612894	-18.786348	-72.320611	24.625405	15.679256	0.000000	-11.822226	1.914174	1.257226
5.545000	11.984329	0.992000	-179.125039	0.284631	0.709797	-1.205296	51.888747	-26.993732	-23.206530	-71.220566	22.897633	5.282350	0.000000	53.278780	-28.350249	-19.332869	-70.861856	24.038478	15.632251	0.000000	-11.692212	1.816168	1.334563
5.550000	11.924621	0.968158	-179.158164	0.283311	0.715611	-1.205356	50.928933	-26.671227	-23.565796	-69.798926	22.327705	5.315023	0.000000	52.304858	-28.129324	-19.707771	-69.535284	23.236276	15.721436	0.000000	-11.516145	1.814226	1.239822
5.555000	11.849465	0.959392	-179.176210	0.281894	0.721394	-1.205413	49.927143	-26.369703	-23.988961	-68.371000	21.772447	5.354312	0.000000	51.182762	-27.882897	-20.334573	-68.046152	22.798961	15.655928	0.000000	-11.346739	1.814877	1.131594
5.560000	11.782659	0.930441	-179.201368	0.280529	0.727049	-1.205406	48.955677	-26.060264	-24.348996	-66.924319	21.197266	5.394949	0.000000	50.143003	-27.613533	-20.809278	-66.638981	22.179645	15.683928	0.000000	-11.189425	1.705883	1.254751
5.565000	11.688327	0.909533	-179.207958	0.279234	0.732614	-1.205444	47.950711	-25.762770	-24.752653	-65.480874	20.625720	5.455317	0.000000	49.107432	-27.348550	-21.266540	-65.250233	21.540087	15.725581	0.000000	-10.937081	1.508118	1.722068
5.570000	11.700596	0.884990	-179.225708	0.277791	0.738104	-1.205500	47.054824	-25.446458	-25.117822	-64.014712	20.007475	5.503884	0.000000	48.188524	-27.088626	-21.627824	-63.836657	20.827208	15.906478	0.000000	-10.785506	1.654892	1.142977
5.575000	11.584318	0.881403	-179.221723	0.276445	0.743506	-1.205626	46.062402	-25.136839	-25.495030	-62.619940	19.406627	5.593366	0.000000	47.106388	-26.813130	-22.169335	-62.416270	20.270829	15.759817	0.000000	-10.560355	1.410207	1.698125
5.580000	11.522885	0.856341	-179.226489	0.274997	0.748778	-1.205616	45.122862	-24.838269	-25.848442	-61.202326	18.810781	5.684359	0.000000	46.111432	-26.507495	-22.607840	-60.976483	19.562759	15.638859	0.000000	-10.382277	1.388018	1.602954
5.585000	11.466181	0.843895	-179.237651	0.273577	0.753981	-1.205699	44.185975	-24.508799	-26.207987	-59.767844	18.215325	5.751939	0.000000	45.122057	-26.227849	-23.051227	-59.541123	18.905562	15.553660	0.000000	-10.194933	1.377543	1.511944
5.590000	11.421234	0.820558	-179.231647	0.272128	0.759100	-1.205733	43.278457	-24.233453	-26.663670	-58.401436	17.414991	5.666575	0.000000	44.144082	-25.894727	-23.462699	-58.080049	18.212333	15.451136	0.000000	-10.005491	1.316204	1.486671
5.595000	11.367107	0.800764	-179.235174	0.270685	0.764059	-1.205817	42.348400	-23.900424	-27.003566	-56.947403	16.798024	5.697985	0.000000	43.180707	-25.584556	-23.894195	-56.644804	17.554944	15.652507	0.000000	-9.824779	1.277122	1.410616
5.600000	11.364249	0.814755	-179.240733	0.269289	0.768879	-1.205969	41.477863	-23.536484	-27.371221	-55.505218	16.181341	5.743646	0.000000	42.313187	-25.311074	-24.205123	-55.234106	16.888449	15.780892	0.000000	-9.587137	1.273176	1.369478
5.605000	11.352100	0.818528	-179.242192	0.267811	0.773582	-1.205992	40.564717	-23.161010	-27.678127	-53.973970	15.745742	5.894558	0.000000	41.416378	-24.991804	-24.576118	-53.809877	16.239009	15.726423	0.000000	-9.358450	1.269817	1.298352
5.610000	11.299437	0.807052	-179.251802	0.266359	0.778229	-1.206040	39.667186	-22.819355	-28.006182	-52.548877	15.149904	5.952299	0.000000	40.474427	-24.651882	-24.976242	-52.365763	15.543539	15.554767	0.000000	-9.182692	1.244048	1.271313
5.615000	11.301729	0.812228	-179.278041	0.264903	0.782723	-1.206133	38.823511	-22.440097	-28.329320	-51.094977	14.516934	5.983509	0.000000	39.625454	-24.335936	-25.294647	-50.983576	14.839209	15.437617	0.000000	-8.946187	1.236020	1.214735
5.620000	11.259778	0.806299	-179.253373	0.263527	0.787060	-1.206318	37.941355	-22.084190	-28.647731	-49.664276	13.904853	6.008063	0.000000	38.758994	-23.995361	-25.575914	-49.562026	14.184388	15.401234	0.000000	-8.773550	1.190550	1.138041
5.625000	11.243840	0.800419	-179.277926	0.262039	0.791274	-1.206349	37.120732	-21.726996	-28.921911	-48.253309	13.240937	6.056245	0.000000	37.917780	-23.666949	-25.877161	-48.210291	13.503891	15.269405	0.000000	-8.560169	1.184106	1.091035
5.630000	11.236482	0.837233	-179.269449	0.260574	0.795398	-1.206358	36.287460	-21.335840	-29.246217	-46.830151	12.618719	6.063128	0.000000	37.119019	-23.341688	-26.087284	-46.831887	12.835757	15.120457	0.000000	-8.331936	1.216068	1.042386
5.635000	11.157068	0.816861	-179.231953	0.259172	0.799374	-1.206457	35.421753	-21.018522	-29.559444	-45.479319	12.039908	6.028750	0.000000	36.268657	-22.965225	-26.291229	-45.483873	12.135305	14.953483	0.000000	-8.203827	1.164300	0.966856
5.640000	11.107595	0.828904	-179.251181	0.257717	0.803229	-1.206568	34.578002	-20.619921	-29.833883	-44.076293	11.433652	6.000784	0.000000	35.433106	-22.640549	-26.490653	-44.107852	11.456068	14.783496	0.000000	-8.028751	1.176781	0.898295
5.645000	11.121525	0.848639	-179.283224	0.256289	0.806915	-1.206552	33.809281	-20.223172	-30.097908	-42.662852	10.781163	6.003493	0.000000	34.686925	-22.321856	-26.687504	-42.792850	10.791204	14.614051	0.000000	-7.781787	1.206278	0.885491
5.650000	11.126358	0.855613	-179.286587	0.254952	0.810420	-1.206646	33.058764	-19.830691	-30.296910	-41.287764	10.129949	5.964587	0.000000	33.959089	-21.970049	-26.812905	-41.469938	10.111283	14.374978	0.000000	-7.550759	1.198640	0.839044
5.655000	11.036887	0.832285	-179.255800	0.253613	0.813822	-1.206738	32.231232	-19.499164	-30.528125	-39.970364	9.567939	5.893738	0.000000	33.169169	-21.598061	-26.934578	-40.212356	9.437416	14.150101	0.000000	-7.435555	1.145000	0.749279
